<mxfile host="app.diagrams.net" modified="2020-12-15T09:34:50.485Z" agent="5.0 (Windows NT 10.0; Win64; x64) AppleWebKit/537.36 (KHTML, like Gecko) Chrome/87.0.4280.88 Safari/537.36" etag="QhpdgsKwde_pFHpkSRUl" version="14.0.1" type="github">
  <diagram id="lO68lMlRsEt-1n6OrIaJ" name="Page-1">
    <mxGraphModel dx="2370" dy="1270" grid="1" gridSize="10" guides="1" tooltips="1" connect="1" arrows="1" fold="1" page="1" pageScale="1" pageWidth="827" pageHeight="1169" math="0" shadow="0">
      <root>
        <mxCell id="0" />
        <mxCell id="1" parent="0" />
        <mxCell id="Y-W3gSTiN9VbyTjXsW_w-12" value="" style="whiteSpace=wrap;html=1;aspect=fixed;" parent="1" vertex="1">
          <mxGeometry x="200" y="80" width="360" height="360" as="geometry" />
        </mxCell>
        <mxCell id="Y-W3gSTiN9VbyTjXsW_w-4" value="" style="whiteSpace=wrap;html=1;aspect=fixed;" parent="1" vertex="1">
          <mxGeometry x="260" y="200" width="120" height="120" as="geometry" />
        </mxCell>
        <mxCell id="Y-W3gSTiN9VbyTjXsW_w-5" value="" style="endArrow=none;html=1;entryX=1;entryY=0;entryDx=0;entryDy=0;exitX=0;exitY=1;exitDx=0;exitDy=0;" parent="1" source="Y-W3gSTiN9VbyTjXsW_w-4" target="Y-W3gSTiN9VbyTjXsW_w-4" edge="1">
          <mxGeometry width="50" height="50" relative="1" as="geometry">
            <mxPoint x="150" y="380" as="sourcePoint" />
            <mxPoint x="200" y="330" as="targetPoint" />
          </mxGeometry>
        </mxCell>
        <mxCell id="Y-W3gSTiN9VbyTjXsW_w-8" value="" style="rounded=0;whiteSpace=wrap;html=1;" parent="1" vertex="1">
          <mxGeometry x="260" y="100" width="120" height="10" as="geometry" />
        </mxCell>
        <mxCell id="gD0wkGwcgPkHiNoq_Jhs-1" value="" style="rounded=0;whiteSpace=wrap;html=1;" vertex="1" parent="1">
          <mxGeometry x="220" y="440" width="200" height="200" as="geometry" />
        </mxCell>
        <mxCell id="gD0wkGwcgPkHiNoq_Jhs-3" value="" style="rounded=0;whiteSpace=wrap;html=1;" vertex="1" parent="1">
          <mxGeometry x="260" y="120" width="120" height="10" as="geometry" />
        </mxCell>
        <mxCell id="gD0wkGwcgPkHiNoq_Jhs-7" value="" style="rounded=0;whiteSpace=wrap;html=1;" vertex="1" parent="1">
          <mxGeometry x="510" y="200" width="10" height="120" as="geometry" />
        </mxCell>
        <mxCell id="gD0wkGwcgPkHiNoq_Jhs-8" value="" style="rounded=0;whiteSpace=wrap;html=1;" vertex="1" parent="1">
          <mxGeometry x="490" y="200" width="10" height="120" as="geometry" />
        </mxCell>
        <mxCell id="gD0wkGwcgPkHiNoq_Jhs-9" value="" style="endArrow=none;html=1;entryX=0;entryY=0.5;entryDx=0;entryDy=0;" edge="1" parent="1" target="Y-W3gSTiN9VbyTjXsW_w-4">
          <mxGeometry width="50" height="50" relative="1" as="geometry">
            <mxPoint x="140" y="188" as="sourcePoint" />
            <mxPoint x="130" y="190" as="targetPoint" />
            <Array as="points">
              <mxPoint x="170" y="188" />
            </Array>
          </mxGeometry>
        </mxCell>
        <mxCell id="gD0wkGwcgPkHiNoq_Jhs-12" value="100" style="rounded=0;whiteSpace=wrap;html=1;fontSize=27;opacity=0;" vertex="1" parent="1">
          <mxGeometry x="70" y="170" width="60" height="30" as="geometry" />
        </mxCell>
        <mxCell id="gD0wkGwcgPkHiNoq_Jhs-14" value="" style="endArrow=none;html=1;fontSize=22;exitX=1;exitY=0.75;exitDx=0;exitDy=0;" edge="1" parent="1" source="gD0wkGwcgPkHiNoq_Jhs-7">
          <mxGeometry width="50" height="50" relative="1" as="geometry">
            <mxPoint x="610" y="330" as="sourcePoint" />
            <mxPoint x="640" y="290" as="targetPoint" />
          </mxGeometry>
        </mxCell>
        <mxCell id="gD0wkGwcgPkHiNoq_Jhs-15" value="104" style="rounded=0;whiteSpace=wrap;html=1;fontSize=27;opacity=0;" vertex="1" parent="1">
          <mxGeometry x="640" y="270" width="60" height="30" as="geometry" />
        </mxCell>
        <mxCell id="gD0wkGwcgPkHiNoq_Jhs-16" value="" style="endArrow=none;html=1;fontSize=22;exitX=0.5;exitY=0;exitDx=0;exitDy=0;" edge="1" parent="1" source="gD0wkGwcgPkHiNoq_Jhs-8">
          <mxGeometry width="50" height="50" relative="1" as="geometry">
            <mxPoint x="600" y="150" as="sourcePoint" />
            <mxPoint x="600" y="120" as="targetPoint" />
            <Array as="points">
              <mxPoint x="570" y="120" />
            </Array>
          </mxGeometry>
        </mxCell>
        <mxCell id="gD0wkGwcgPkHiNoq_Jhs-18" value="103" style="rounded=0;whiteSpace=wrap;html=1;fontSize=27;opacity=0;" vertex="1" parent="1">
          <mxGeometry x="600" y="100" width="60" height="30" as="geometry" />
        </mxCell>
        <mxCell id="gD0wkGwcgPkHiNoq_Jhs-19" value="" style="endArrow=none;html=1;fontSize=22;" edge="1" parent="1" source="Y-W3gSTiN9VbyTjXsW_w-8">
          <mxGeometry width="50" height="50" relative="1" as="geometry">
            <mxPoint x="310" y="-10" as="sourcePoint" />
            <mxPoint x="200" y="40" as="targetPoint" />
            <Array as="points">
              <mxPoint x="240" y="40" />
            </Array>
          </mxGeometry>
        </mxCell>
        <mxCell id="gD0wkGwcgPkHiNoq_Jhs-20" value="" style="endArrow=none;html=1;fontSize=22;entryX=0;entryY=0.5;entryDx=0;entryDy=0;" edge="1" parent="1" target="gD0wkGwcgPkHiNoq_Jhs-3">
          <mxGeometry width="50" height="50" relative="1" as="geometry">
            <mxPoint x="140" y="120" as="sourcePoint" />
            <mxPoint x="150" y="100" as="targetPoint" />
            <Array as="points">
              <mxPoint x="180" y="120" />
            </Array>
          </mxGeometry>
        </mxCell>
        <mxCell id="gD0wkGwcgPkHiNoq_Jhs-21" value="101" style="rounded=0;whiteSpace=wrap;html=1;fontSize=27;opacity=0;" vertex="1" parent="1">
          <mxGeometry x="80" y="100" width="60" height="30" as="geometry" />
        </mxCell>
        <mxCell id="gD0wkGwcgPkHiNoq_Jhs-22" value="102" style="rounded=0;whiteSpace=wrap;html=1;fontSize=27;opacity=0;" vertex="1" parent="1">
          <mxGeometry x="140" y="20" width="60" height="30" as="geometry" />
        </mxCell>
      </root>
    </mxGraphModel>
  </diagram>
</mxfile>
